<svg width="23" height="20" viewBox="0 0 23 20" fill="none" xmlns="http://www.w3.org/2000/svg">
<path d="M19.4172 11.5325L13.1101 17.8407C12.6919 18.2587 12.1249 18.4935 11.5336 18.4935C10.9423 18.4935 10.3753 18.2587 9.95712 17.8407L3.65005 11.5336C3.12869 11.0168 2.71453 10.4021 2.43137 9.72477C2.14821 9.04746 2.00162 8.32089 2.00001 7.58677C1.99841 6.85266 2.14181 6.12545 2.42201 5.44691C2.7022 4.76837 3.11365 4.15185 3.63275 3.63275C4.15185 3.11365 4.76837 2.7022 5.44691 2.42201C6.12546 2.14181 6.85266 1.99841 7.58677 2.00001C8.32089 2.00162 9.04746 2.14821 9.72477 2.43137C10.4021 2.71453 11.0168 3.12869 11.5336 3.65005C12.5834 2.62642 13.9942 2.05758 15.4604 2.06677C16.9266 2.07596 18.3301 2.66243 19.367 3.69914C20.4038 4.73584 20.9905 6.13931 20.9999 7.60551C21.0093 9.07171 20.4406 10.4826 19.4172 11.5325Z" stroke="#AFB9CA" stroke-width="2.5" stroke-linecap="round" stroke-linejoin="round"/>
</svg>
